<?xml version="1.0" encoding="utf-8"?>
<!-- Generator: Adobe Illustrator 23.0.3, SVG Export Plug-In . SVG Version: 6.00 Build 0)  -->
<svg version="1.1" id="Layer_1" xmlns="http://www.w3.org/2000/svg" xmlns:xlink="http://www.w3.org/1999/xlink" x="0px" y="0px"
	 viewBox="0 0 48 48" style="enable-background:new 0 0 48 48;" xml:space="preserve">
<style type="text/css">
	.st0{fill:#231F20;}
</style>
<path class="st0" d="M6.3,11.2H2c-1.1,0-2-0.9-2-2.2c0-1.1,0.9-2,2-2h4.4C7.2,4.9,9.4,3.1,12,3.1s4.8,1.7,5.7,3.9H46
	c1.1,0,2,0.9,2,2s-0.9,2-2,2H17.7c-0.9,2.4-3.1,4.1-5.7,4.1S7.2,13.4,6.3,11.2z M12,11.2c1.1,0,2-0.9,2-2s-0.9-2-2-2
	c-1.1-0.2-2,0.7-2,1.7C10,10.3,10.9,11.2,12,11.2z M26.4,27.1H2c-1.1,0-2-0.9-2-2s0.9-2,2-2h24.4c0.9-2.4,3.1-3.9,5.7-3.9
	s4.8,1.7,5.7,3.9H46c1.1,0,2,0.9,2,2c0,1.1-0.9,2-2,2h-8.3c-0.9,2.4-3.1,3.9-5.7,3.9S27.3,29.5,26.4,27.1z M32.1,27.1
	c1.1,0,2-0.9,2-2s-0.9-2-2-2c-1.1,0-2,0.9-2,2S31,27.1,32.1,27.1z M6.3,43.1H2c-1.1,0-2-0.9-2-2s0.9-2,2-2h4.4
	c0.9-2.4,3.1-3.9,5.7-3.9s4.8,1.7,5.7,3.9H46c1.1,0,2,0.9,2,2s-0.9,2-2,2H17.7C16.8,45.5,14.6,47,12,47S7.2,45.5,6.3,43.1z M12,43.1
	c1.1,0,2-0.9,2-2s-0.9-2-2-2s-2,0.9-2,2S10.9,43.1,12,43.1z"/>
</svg>
