<?xml version="1.0" encoding="utf-8"?>
<!-- Generator: Adobe Illustrator 23.0.3, SVG Export Plug-In . SVG Version: 6.00 Build 0)  -->
<svg version="1.1" id="Capa_1" xmlns="http://www.w3.org/2000/svg" xmlns:xlink="http://www.w3.org/1999/xlink" x="0px" y="0px"
	 viewBox="0 0 48 48" style="enable-background:new 0 0 48 48;" xml:space="preserve">
<style type="text/css">
	.st0{fill-rule:evenodd;clip-rule:evenodd;}
</style>
<g id="Search">
	<path class="st0" d="M46.8,41.2L36.4,30.7c-0.1-0.1-0.1-0.1-0.2-0.1c2.1-3.1,3.2-6.8,3.2-10.8C39.5,8.8,30.6,0,19.7,0S0,8.8,0,19.7
		c0,10.9,8.8,19.7,19.7,19.7c4,0,7.7-1.2,10.8-3.2c0.1,0.1,0.1,0.1,0.1,0.2l10.4,10.4c1.6,1.6,4.1,1.6,5.7,0
		C48.4,45.3,48.4,42.7,46.8,41.2z M19.7,32.6c-7.1,0-12.9-5.8-12.9-12.9c0-7.1,5.8-12.9,12.9-12.9c7.1,0,12.9,5.8,12.9,12.9
		S26.9,32.6,19.7,32.6z"/>
</g>
</svg>
